PathFileType	4	(x/y/z)	S06_PSF_T05
DataRate	CameraRate	NumFrames	NumMarkers	Units	OrigDataRate	OrigDataStartFrame	OrigNumFrames
240	240	8	51	mm	240	249	397
Frame#	Time	Sternum			R.Acromium			L.Acromium			Top.Head			R.ASIS			L.ASIS			R.PSIS			L.PSIS			R.Great.Tro			L.Great.Tro			R.Iliac.Crest			L.Iliac.Crest			V.Sacral			R.Thigh.Upper.Post			R.Thigh.Lower.Ant			R.Thigh.Lower.Post			R.Thigh.Upper.Ant			R.Knee.Lat			R.Knee.Med			R.Shank.Upper.Post			R.Shank.Lower.Ant			R.Shank.Lower.Post			R.Shank.Upper.Ant			R.Ankle.Lat			R.Ankle.Med			R.Heel.Upper			R.Heel.Med			R.Heel.Lat			R.Toe.Lat			R.Toe.Med			R.Toe.Tip			L.Thigh.Upper.Post			L.Thigh.Lower.Ant			L.Thigh.Lower.Post			L.Thigh.Upper.Ant			L.Knee.Lat			L.Knee.Med			L.Shank.Upper.Post			L.Shank.Lower.Ant			L.Shank.Lower.Post			L.Shank.Upper.Ant			L.Ankle.Lat			L.Ankle.Med			L.Heel.Upper			L.Heel.Med			L.Heel.Lat			L.Toe.Lat			L.Toe.Med			L.Toe.Tip			Cervical.Spine			Back			
		X1	Y1	Z1	X2	Y2	Z2	X3	Y3	Z3	X4	Y4	Z4	X5	Y5	Z5	X6	Y6	Z6	X7	Y7	Z7	X8	Y8	Z8	X9	Y9	Z9	X10	Y10	Z10	X11	Y11	Z11	X12	Y12	Z12	X13	Y13	Z13	X14	Y14	Z14	X15	Y15	Z15	X16	Y16	Z16	X17	Y17	Z17	X18	Y18	Z18	X19	Y19	Z19	X20	Y20	Z20	X21	Y21	Z21	X22	Y22	Z22	X23	Y23	Z23	X24	Y24	Z24	X25	Y25	Z25	X26	Y26	Z26	X27	Y27	Z27	X28	Y28	Z28	X29	Y29	Z29	X30	Y30	Z30	X31	Y31	Z31	X32	Y32	Z32	X33	Y33	Z33	X34	Y34	Z34	X35	Y35	Z35	X36	Y36	Z36	X37	Y37	Z37	X38	Y38	Z38	X39	Y39	Z39	X40	Y40	Z40	X41	Y41	Z41	X42	Y42	Z42	X43	Y43	Z43	X44	Y44	Z44	X45	Y45	Z45	X46	Y46	Z46	X47	Y47	Z47	X48	Y48	Z48	X49	Y49	Z49	X50	Y50	Z50	X51	Y51	Z51	

249	1.0333	-122.83	1272.6	357.14	-242.74	1479	528.76	-262.06	1479.6	177.47	-214.94	1794.6	349.2	-175.18	1038.6	490.62	-165.89	1037.2	236.27	NaN	NaN	NaN	-372.32	1056.6	311.84	-244.02	967.9	539.38	-253.36	956.1	181.13	-257.27	1117.5	516.1	-237.82	1105.7	198.15	-382.82	1021.5	356.33	-309.88	729.21	517.53	-275.41	639.32	481.19	-342.58	649.14	493.91	-237.79	720.81	502.85	-359.9	536.12	475.05	-349.2	544.57	346.89	-472.63	330.32	462.15	-434.74	251.96	438.19	-499.18	259.69	443.57	-407.39	322.27	457.8	-509.72	125.06	412.49	-494.67	133.98	328.56	-583.01	92.093	362.09	-576.48	58.75	333.59	-579.98	61.77	398.21	-407.04	37.41	448.53	-375.43	38.175	327.73	-310.16	45.923	377.6	-104.9	727.04	202.68	-41.429	666.68	269.47	-95.399	637.57	219.14	-59.953	758.14	250.67	-80.19	546.92	237.16	-67.639	555.69	359.67	-49.794	318.9	244.07	32.228	283.24	243.11	-29.185	249.39	260.05	8.5934	349.99	233.56	66.946	131.13	256.68	72.353	156.46	345.71	11.791	60.948	303.54	33.213	37.125	335.8	31.457	38.557	274.05	194.73	110.83	231.78	211.95	124.94	349.1	267.11	170.93	293.98	-305.81	1532.5	356.17	-364.91	1259.5	356.36
250	1.0375	-117.25	1271.8	356.83	-237.33	1478.2	528.35	-256.67	1478.7	177.04	-209.56	1793.9	348.71	-169.55	1037.7	490.38	-160.24	1036.2	236	NaN	NaN	NaN	-366.67	1055.7	311.41	-238.58	967.15	539.07	-247.71	955.25	180.75	-251.66	1116.7	515.77	-232.14	1104.8	197.8	-377.16	1020.6	355.91	-305.12	728.78	517.36	-270.84	638.75	481.19	-338.01	648.78	493.74	-233.09	720.16	502.7	-355.76	535.76	474.92	-344.85	544.12	346.82	-470.05	330.82	462.14	-432.84	252.16	438.13	-497.2	260.45	443.63	-404.88	322.26	457.72	-508.94	125.89	412.51	-494.1	134.79	328.58	-582.51	93.368	362.17	-576.21	60.016	333.63	-579.65	62.995	398.25	-406.92	37.438	448.53	-375.28	38.168	327.73	-310.03	45.737	377.63	-100.44	725.59	202.37	-36.978	665.22	269.16	-91.291	636.16	219.2	-55.158	756.69	250	-75.951	545.62	237.4	-63.078	554.72	359.93	-43.938	317.78	244.56	38.305	282.62	243.77	-22.938	248.38	260.6	14.282	349.22	234.16	74.055	130.81	257.37	78.979	156.11	346.41	19.184	60.541	303.96	40.49	36.788	336.25	39.011	38.225	274.53	202.13	111.17	232.98	218.67	125.54	350.34	273.88	171.81	295.45	-300.41	1531.7	355.73	-359.34	1258.6	356.02
251	1.0417	-111.65	1270.9	356.51	-231.9	1477.5	527.94	-251.27	1477.8	176.61	-204.18	1793.1	348.21	-163.89	1036.9	490.14	-154.57	1035.3	235.72	NaN	NaN	NaN	-361	1054.8	310.97	-233.11	966.44	538.75	-242.04	954.42	180.38	-246.03	1115.8	515.42	-226.43	1103.9	197.43	-371.48	1019.7	355.47	-300.25	728.37	517.16	-266.14	638.19	481.19	-333.31	648.42	493.57	-228.29	719.54	502.52	-351.46	535.41	474.8	-340.34	543.65	346.76	-467.37	331.35	462.14	-430.86	252.38	438.07	-495.13	261.26	443.71	-402.27	322.25	457.65	-508.12	126.78	412.55	-493.44	135.64	328.61	-581.98	94.736	362.27	-575.92	61.378	333.69	-579.29	64.307	398.3	-406.79	37.472	448.53	-375.13	38.169	327.72	-309.9	45.552	377.67	-95.977	724.17	202.11	-32.457	663.8	268.85	-87.152	634.79	219.31	-50.306	755.28	249.31	-71.652	544.39	237.66	-58.42	553.82	360.2	-38.293	316.7	245.01	44.117	281.93	244.42	-17.002	247.39	261.11	19.801	348.42	234.77	80.665	130.42	258.01	85.134	155.63	347.07	25.979	60.213	304.3	47.091	36.465	336.6	45.889	37.965	274.91	208.98	111.24	234.1	224.87	125.76	351.5	280.19	172.21	296.86	-295	1530.9	355.28	-353.76	1257.7	355.65
252	1.0458	-106.03	1270.2	356.18	-226.48	1476.8	527.51	-245.87	1476.9	176.16	-198.8	1792.4	347.7	-158.2	1036.1	489.89	-148.87	1034.3	235.45	NaN	NaN	NaN	-355.3	1054	310.53	-227.61	965.76	538.42	-236.36	953.61	180.02	-240.37	1115	515.06	-220.68	1103	197.05	-365.78	1018.9	355.02	-295.26	727.96	516.96	-261.31	637.65	481.17	-328.48	648.06	493.4	-223.4	718.96	502.32	-347.02	535.04	474.68	-335.68	543.18	346.72	-464.57	331.92	462.16	-428.8	252.62	438.04	-492.96	262.11	443.8	-399.56	322.26	457.58	-507.25	127.73	412.6	-492.69	136.53	328.66	-581.4	96.201	362.4	-575.6	62.841	333.76	-578.89	65.71	398.36	-406.65	37.51	448.54	-374.97	38.18	327.71	-309.76	45.37	377.7	-91.489	722.78	201.87	-27.866	662.44	268.55	-82.973	633.45	219.48	-45.396	753.92	248.59	-67.286	543.21	237.94	-53.668	552.97	360.49	-32.855	315.66	245.44	49.668	281.18	245.05	-11.373	246.42	261.58	25.152	347.59	235.38	86.782	129.94	258.6	90.828	155.01	347.68	32.187	59.959	304.58	53.026	36.159	336.86	52.101	37.766	275.21	215.28	111.01	235.15	230.54	125.59	352.59	286.06	172.16	298.21	-289.59	1530.2	354.82	-348.16	1256.8	355.27
253	1.05	-100.4	1269.4	355.83	-221.04	1476.1	527.08	-240.45	1476	175.71	-193.42	1791.8	347.17	-152.48	1035.4	489.63	-143.14	1033.5	235.16	NaN	NaN	NaN	-349.57	1053.3	310.07	-222.07	965.12	538.07	-230.66	952.83	179.68	-234.7	1114.3	514.69	-214.9	1102.1	196.66	-360.05	1018.1	354.57	-290.17	727.57	516.74	-256.35	637.14	481.16	-323.51	647.71	493.23	-218.4	718.41	502.09	-342.41	534.68	474.58	-330.86	542.69	346.68	-461.66	332.51	462.2	-426.64	252.9	438.02	-490.71	263	443.91	-396.75	322.29	457.52	-506.32	128.75	412.66	-491.83	137.48	328.73	-580.77	97.768	362.54	-575.24	64.409	333.84	-578.47	67.207	398.44	-406.48	37.553	448.55	-374.8	38.199	327.7	-309.62	45.19	377.73	-86.972	721.44	201.67	-23.204	661.12	268.25	-78.748	632.17	219.68	-40.429	752.6	247.87	-62.849	542.1	238.24	-48.827	552.18	360.78	-27.623	314.66	245.83	54.962	280.36	245.68	-6.046	245.45	262.01	30.339	346.71	235.98	92.418	129.39	259.14	96.073	154.25	348.26	37.823	59.777	304.8	58.309	35.872	337.05	57.662	37.622	275.44	221.04	110.5	236.13	235.71	125.04	353.6	291.5	171.64	299.51	-284.17	1529.5	354.35	-342.54	1256	354.88
254	1.0542	-94.745	1268.7	355.47	-215.6	1475.5	526.63	-235.02	1475.2	175.24	-188.03	1791.2	346.64	-146.73	1034.7	489.36	-137.39	1032.6	234.87	NaN	NaN	NaN	-343.82	1052.5	309.62	-216.49	964.52	537.71	-224.95	952.07	179.36	-229	1113.6	514.31	-209.09	1101.3	196.25	-354.31	1017.4	354.12	-284.97	727.2	516.51	-251.26	636.64	481.15	-318.42	647.35	493.07	-213.3	717.9	501.86	-337.66	534.31	474.49	-325.88	542.19	346.67	-458.64	333.14	462.25	-424.4	253.21	438.01	-488.36	263.94	444.04	-393.85	322.33	457.47	-505.34	129.84	412.75	-490.87	138.47	328.82	-580.08	99.44	362.7	-574.84	66.089	333.94	-578	68.804	398.53	-406.3	37.602	448.56	-374.62	38.227	327.69	-309.47	45.013	377.76	-82.418	720.14	201.48	-18.47	659.87	267.95	-74.468	630.94	219.92	-35.403	751.33	247.14	-58.336	541.05	238.54	-43.901	551.44	361.06	-22.592	313.69	246.19	60.006	279.48	246.29	-1.0135	244.5	262.39	35.364	345.8	236.56	97.59	128.74	259.63	100.89	153.37	348.79	42.91	59.662	304.97	62.965	35.61	337.18	62.595	37.523	275.61	226.28	109.67	237.04	240.4	124.12	354.54	296.52	170.66	300.73	-278.75	1528.8	353.87	-336.9	1255.2	354.47
255	1.0583	-89.076	1268.1	355.09	-210.15	1474.9	526.18	-229.58	1474.5	174.75	-182.63	1790.6	346.09	-140.94	1034.1	489.07	-131.62	1031.8	234.58	NaN	NaN	NaN	-338.05	1051.9	309.16	-210.86	963.96	537.35	-219.23	951.34	179.05	-223.27	1112.9	513.93	-203.25	1100.5	195.84	-348.54	1016.7	353.67	-279.67	726.84	516.28	-246.04	636.16	481.15	-313.2	647	492.92	-208.1	717.42	501.62	-332.74	533.95	474.42	-320.75	541.68	346.67	-455.5	333.81	462.32	-422.07	253.55	438.03	-485.91	264.93	444.17	-390.85	322.4	457.43	-504.3	131.01	412.84	-489.8	139.51	328.92	-579.33	101.22	362.87	-574.4	67.884	334.05	-577.48	70.505	398.63	-406.11	37.657	448.57	-374.43	38.264	327.68	-309.32	44.84	377.79	-77.817	718.9	201.32	-13.664	658.67	267.65	-70.126	629.76	220.17	-30.317	750.11	246.41	-53.748	540.07	238.83	-38.895	550.76	361.33	-17.756	312.75	246.52	64.809	278.52	246.87	3.7355	243.55	262.73	40.232	344.85	237.13	102.32	128	260.08	105.29	152.37	349.28	47.474	59.61	305.1	67.021	35.374	337.25	66.93	37.462	275.73	231.03	108.55	237.89	244.64	122.86	355.42	301.16	169.24	301.89	-273.31	1528.1	353.38	-331.24	1254.4	354.04
256	1.0625	-83.388	1267.5	354.7	-204.69	1474.4	525.71	-224.13	1473.7	174.25	-177.23	1790	345.54	-135.12	1033.5	488.78	-125.81	1031.1	234.27	NaN	NaN	NaN	-332.25	1051.3	308.72	-205.2	963.44	536.97	-213.51	950.64	178.76	-217.52	1112.3	513.54	-197.4	1099.8	195.42	-342.75	1016.1	353.23	-274.26	726.49	516.04	-240.69	635.71	481.15	-307.85	646.66	492.77	-202.78	716.97	501.38	-327.68	533.58	474.36	-315.45	541.17	346.68	-452.25	334.53	462.41	-419.65	253.94	438.08	-483.36	265.98	444.33	-387.75	322.49	457.4	-503.19	132.25	412.96	-488.63	140.61	329.04	-578.51	103.12	363.06	-573.9	69.802	334.16	-576.92	72.314	398.74	-405.89	37.718	448.58	-374.23	38.311	327.67	-309.17	44.671	377.82	-73.162	717.71	201.17	-8.7876	657.54	267.36	-65.716	628.65	220.44	-25.171	748.96	245.68	-49.086	539.15	239.11	-33.814	550.12	361.58	-13.107	311.84	246.82	69.381	277.51	247.43	8.2142	242.61	263.04	44.948	343.86	237.67	106.63	127.18	260.48	109.3	151.25	349.73	51.547	59.616	305.19	70.515	35.169	337.29	70.703	37.433	275.8	235.31	107.15	238.68	248.44	121.28	356.23	305.43	167.41	302.98	-267.87	1527.5	352.87	-325.57	1253.7	353.61
